<?xml version="1.0" encoding="UTF-8" standalone="no"?>
<svg
   xmlns:osb="http://www.openswatchbook.org/uri/2009/osb"
   xmlns:dc="http://purl.org/dc/elements/1.1/"
   xmlns:cc="http://creativecommons.org/ns#"
   xmlns:rdf="http://www.w3.org/1999/02/22-rdf-syntax-ns#"
   xmlns:svg="http://www.w3.org/2000/svg"
   xmlns="http://www.w3.org/2000/svg"
   xmlns:sodipodi="http://sodipodi.sourceforge.net/DTD/sodipodi-0.dtd"
   xmlns:inkscape="http://www.inkscape.org/namespaces/inkscape"
   inkscape:export-ydpi="49.676941"
   inkscape:export-xdpi="49.676941"
   inkscape:export-filename="/Users/damon.hook/Documents/personal/warcry-statshammer/client/public/logo256.png"
   width="512"
   height="512"
   viewBox="0 0 135.46667 135.46667"
   version="1.1"
   id="svg8"
   inkscape:version="1.0beta2 (2b71d25, 2019-12-03)"
   sodipodi:docname="logo.svg">
  <defs
     id="defs2">
    <linearGradient
       id="linearGradient6290"
       osb:paint="solid">
      <stop
         style="stop-color:#000000;stop-opacity:1;"
         offset="0"
         id="stop6288" />
    </linearGradient>
    <linearGradient
       id="linearGradient6268"
       osb:paint="solid">
      <stop
         style="stop-color:#000000;stop-opacity:1;"
         offset="0"
         id="stop6266" />
    </linearGradient>
    <linearGradient
       id="linearGradient6255"
       osb:paint="solid">
      <stop
         style="stop-color:#000000;stop-opacity:1;"
         offset="0"
         id="stop6253" />
    </linearGradient>
    <linearGradient
       id="linearGradient6173"
       osb:paint="solid">
      <stop
         style="stop-color:#009688;stop-opacity:1;"
         offset="0"
         id="stop6171" />
    </linearGradient>
    <linearGradient
       id="linearGradient6100"
       osb:paint="solid">
      <stop
         style="stop-color:#009688;stop-opacity:1;"
         offset="0"
         id="stop6098" />
    </linearGradient>
    <linearGradient
       id="linearGradient6017"
       osb:paint="solid">
      <stop
         style="stop-color:#000000;stop-opacity:1;"
         offset="0"
         id="stop6015" />
    </linearGradient>
    <linearGradient
       id="Teal"
       osb:paint="solid">
      <stop
         style="stop-color:#009688;stop-opacity:1;"
         offset="0"
         id="stop4553" />
    </linearGradient>
  </defs>
  <sodipodi:namedview
     inkscape:snap-to-guides="true"
     inkscape:snap-grids="false"
     units="px"
     id="base"
     pagecolor="#ffffff"
     bordercolor="#666666"
     borderopacity="1.0"
     inkscape:pageopacity="0.0"
     inkscape:pageshadow="2"
     inkscape:zoom="2.7818613"
     inkscape:cx="239.20007"
     inkscape:cy="298.40816"
     inkscape:document-units="px"
     inkscape:current-layer="layer4"
     showgrid="true"
     showguides="true"
     inkscape:window-width="1680"
     inkscape:window-height="1005"
     inkscape:window-x="131"
     inkscape:window-y="1103"
     inkscape:window-maximized="1"
     inkscape:document-rotation="0">
    <inkscape:grid
       type="xygrid"
       id="grid4522"
       originx="-22.63531"
       originy="-11.249959" />
  </sodipodi:namedview>
  <metadata
     id="metadata5">
    <rdf:RDF>
      <cc:Work
         rdf:about="">
        <dc:format>image/svg+xml</dc:format>
        <dc:type
           rdf:resource="http://purl.org/dc/dcmitype/StillImage" />
        <dc:title />
      </cc:Work>
    </rdf:RDF>
  </metadata>
  <g
     inkscape:groupmode="layer"
     id="layer3"
     inkscape:label="Warcry">
    <g
       style="font-size:50.8px;line-height:1.25;font-family:AppleGothic;-inkscape-font-specification:AppleGothic;fill:#f44336;fill-opacity:1;stroke-width:0.264583"
       id="text41"
       aria-label="W">
      <path
         transform="scale(0.26458334)"
         d="M 161.31055 152.65625 L 180.76367 217.27734 L 151.32227 217.27734 L 151.32227 209.95703 L 121.32227 227.27734 L 151.32227 244.59766 L 151.32227 237.27734 L 186.7832 237.27734 L 206.62305 303.18359 L 221.21484 303.18359 L 257.11914 172.04688 L 294.36719 303.18359 L 308.95898 303.18359 L 328.29297 237.27734 L 361.32227 237.27734 L 361.32227 244.59766 L 391.32227 227.27734 L 361.32227 209.95703 L 361.32227 217.27734 L 334.16211 217.27734 L 353.11914 152.65625 L 338.14258 152.65625 L 301.66211 280.71875 L 264.22266 152.65625 L 249.63086 152.65625 L 214.11133 280.71875 L 177.05469 152.65625 L 161.31055 152.65625 z "
         style="fill:#f44336;fill-opacity:1;stroke-width:0.999999"
         id="path975" />
    </g>
  </g>
  <g
     inkscape:groupmode="layer"
     id="layer5"
     inkscape:label="Warcry 1"
     style="display:inline">
    <path
       sodipodi:type="star"
       style="fill:#f44336;fill-opacity:1;stroke-width:0.264583"
       id="path79"
       sodipodi:sides="3"
       sodipodi:cx="67.333206"
       sodipodi:cy="91.937546"
       sodipodi:r1="15.875"
       sodipodi:r2="7.9375"
       sodipodi:arg1="1.5707963"
       sodipodi:arg2="2.6179939"
       inkscape:flatsided="true"
       inkscape:rounded="0"
       inkscape:randomized="0"
       d="m 67.333207,107.81255 -13.748154,-23.812504 27.496306,-10e-7 z"
       inkscape:transform-center-y="7.0555545"
       transform="matrix(0.69207985,0,0,1.7777777,20.73325,-65.333364)" />
  </g>
  <g
     inkscape:groupmode="layer"
     id="layer2"
     inkscape:label="Halo"
     style="display:inline"
     transform="translate(-22.635311,-11.249959)">
    <text
       xml:space="preserve"
       style="font-style:normal;font-weight:normal;font-size:10.5833px;line-height:1.25;font-family:sans-serif;letter-spacing:0px;word-spacing:0px;fill:#000000;fill-opacity:1;stroke:none;stroke-width:0.264583"
       x="92.604164"
       y="43"
       id="text6057" />
    <path
       style="fill:#f44336;fill-opacity:1;fill-rule:nonzero;stroke:none;stroke-width:6.10976;stroke-miterlimit:4;stroke-dasharray:none;stroke-opacity:1"
       d="m 90.607273,12.622934 -5.170775,21.377809 c -16.150026,0.957955 -30.213664,6.355719 -38.999574,14.20812 l -13.624172,-3.751342 10.321565,7.107514 c -4.016587,4.68185 -6.296101,10.02671 -6.296092,15.703129 0.01209,7.288256 3.855357,14.316329 10.804777,20.057936 L 25.155155,102.82092 70.748218,91.11716 A 45.648148,26.737711 0 0 1 44.853133,67.04951 45.648148,26.737711 0 0 1 75.5213,41.82502 c 0.430818,-0.08843 0.864971,-0.172278 1.301593,-0.253199 a 45.648148,26.737711 0 0 1 2.657454,-0.442148 c 0.672743,-0.09843 1.351952,-0.187185 2.03618,-0.267705 a 45.648148,26.737711 0 0 1 8.98481,-0.550267 45.648148,26.737711 0 0 1 45.648213,26.737809 45.648148,26.737711 0 0 1 -25.76962,24.04555 l 45.67947,11.72586 -22.50262,-15.50518 c 6.95107,-5.737531 10.79949,-12.761747 10.81954,-20.047576 1e-5,-5.685313 -2.28641,-11.038136 -6.31476,-15.725236 l 10.31896,-7.114767 -13.62676,3.759631 C 125.96633,40.346939 111.91379,34.957908 95.778478,34.000743 Z"
       id="path4547"
       inkscape:connector-curvature="0" />
  </g>
  <g
     inkscape:groupmode="layer"
     id="layer4"
     inkscape:label="Text"
     style="display:inline"
     transform="translate(-22.635311,-11.249959)">
    <g
       style="font-style:normal;font-variant:normal;font-weight:normal;font-stretch:normal;font-size:44.45px;line-height:1.25;font-family:AppleGothic;-inkscape-font-specification:AppleGothic;letter-spacing:0px;word-spacing:0px;fill:#f44336;fill-opacity:1;stroke:none;stroke-width:0.264583"
       id="text6251"
       aria-label="%">
      <path
         id="path984"
         style="font-style:normal;font-variant:normal;font-weight:normal;font-stretch:normal;font-family:AppleGothic;-inkscape-font-specification:AppleGothic;fill:#f44336;fill-opacity:1;stroke-width:0.264583"
         d="m 134.41516,139.98251 q -4.0005,0 -6.5786,-2.667 -2.4892,-2.62255 -2.4892,-6.4897 0,-4.04495 2.5781,-6.62305 2.5781,-2.5781 6.35635,-2.5781 3.6449,0 6.26745,2.53365 2.5781,2.53365 2.5781,6.5786 0,4.13385 -2.71145,6.80085 -2.5781,2.44475 -6.00075,2.44475 z m -0.22225,-2.9337 q 1.11125,0 2.08915,-0.4445 1.02235,-0.4445 1.778,-1.2446 0.75565,-0.84455 1.20015,-1.9558 0.4445,-1.1557 0.4445,-2.53365 0,-2.71145 -1.6002,-4.5339 -1.64465,-1.778 -3.77825,-1.778 -2.08915,0 -3.68935,1.5113 -1.82245,1.82245 -1.82245,4.66725 0,2.80035 1.6002,4.5339 1.6002,1.778 3.77825,1.778 z m -2.1336,-34.671 h 3.2893 l -20.93595,39.60495 h -3.24485 l 17.3355,-32.7152 -0.13335,-0.13335 q -0.66675,0.4445 -1.73355,0.84455 -1.0668,0.3556 -2.2225,0.3556 -0.75565,0 -1.9558,-0.22225 -1.1557,-0.2667 -2.35585,-0.8001 0.22225,0.48895 0.3556,0.93345 0.13335,0.40005 0.22225,0.75565 0.3556,1.3335 0.3556,2.62255 0,3.9116 -2.5781,6.53415 -2.5781,2.5781 -6.3119,2.5781 -3.77825,0 -6.3119,-2.5781 -2.4892,-2.62255 -2.4892,-6.62305 0,-4.0005 2.53365,-6.62305 2.5781,-2.667 6.26745,-2.667 1.82245,0 5.7785,1.6002 1.9558,0.8001 3.4671,1.20015 1.55575,0.3556 2.71145,0.3556 2.71145,0 4.6228,-1.20015 2.26695,-1.37795 3.33375,-3.8227 z m -19.95805,17.46885 q 2.2225,0 3.86715,-1.778 1.6002,-1.778 1.6002,-4.57835 0,-1.4224 -0.4445,-2.5781 -0.4445,-1.20015 -1.20015,-2.00025 -0.7112,-0.84455 -1.6891,-1.28905 -0.9779,-0.4445 -2.08915,-0.4445 -1.11125,0 -2.08915,0.4445 -0.93345,0.4445 -1.6891,1.28905 -0.7112,0.8001 -1.1557,2.00025 -0.40005,1.1557 -0.40005,2.5781 0,3.0226 1.73355,4.8006 1.46685,1.55575 3.556,1.55575 z" />
    </g>
  </g>
</svg>
